<?xml version="1.0" encoding="utf-8"?>
<!-- Generator: Adobe Illustrator 24.1.3, SVG Export Plug-In . SVG Version: 6.00 Build 0)  -->
<svg version="1.1" id="Layer_1" xmlns="http://www.w3.org/2000/svg" xmlns:xlink="http://www.w3.org/1999/xlink" x="0px" y="0px"
	 viewBox="0 0 184 32" style="enable-background:new 0 0 184 32;" xml:space="preserve">
<style type="text/css">
	.st0{enable-background:new    ;}
	.st1{fill:#00CC80;}
	.st2{fill:#00C2FF;}
</style>
<g>
	<g id="brand">
		<g class="st0">
			<path d="M3.5,25c-0.6,0-1-0.1-1.4-0.3s-0.7-0.5-0.9-0.9c-0.2-0.4-0.3-0.9-0.4-1.5c-0.1-0.6-0.1-1.2,0-1.9
				c0.1-0.5,0.2-1.1,0.4-1.7c0.2-0.5,0.4-1,0.7-1.6c0.3-0.6,0.8-1.2,1.3-1.7c0.1,0,0.2,0.1,0.3,0.1c0.1,0,0.1,0.1,0.2,0.1
				c0,0.1,0.1,0.1,0.1,0.2c0,0.2,0,0.3-0.1,0.5c-0.1,0.2-0.2,0.4-0.3,0.6c-0.3,0.7-0.6,1.3-0.7,1.9c-0.2,0.6-0.3,1.1-0.3,1.6
				c0,0.4,0,0.8,0,1.2c0,0.4,0.1,0.7,0.2,0.9c0.1,0.3,0.2,0.4,0.2,0.6c0.1,0.1,0.2,0.2,0.2,0.2s0.1-0.1,0.2-0.2
				c0.1-0.1,0.2-0.2,0.2-0.4c0.1-0.1,0.2-0.4,0.3-0.7c0.1-0.3,0.2-0.6,0.4-1s0.3-0.8,0.4-1.3c0.1-0.5,0.2-0.9,0.3-1.4
				c0.2-0.9,0.4-2,0.6-3.1c0.2-1.2,0.6-2.4,1-3.6C6.6,11.3,6.8,10.7,7,10c0.2-0.5,0.4-1.2,0.7-1.9c0.3-0.7,0.6-1.5,0.9-2.4
				c0-0.1,0.1-0.1,0.2-0.2C8.8,5.5,9,5.5,9.1,5.4c0.2-0.1,0.4-0.1,0.6-0.2C10,5.1,10.2,5,10.4,5c0.2,0,0.3,0,0.4,0.1
				c0.1,0.1,0.1,0.1,0.2,0.2c0,0.1,0,0.2,0,0.3c0,0.5,0,0.9,0.1,1.3c0,0.4,0,0.8,0,1.1c0,0.4,0,0.7,0,1c0,0.4,0,0.9-0.1,1.6
				c-0.1,0.7-0.1,1.4-0.2,2.1s-0.1,1.4-0.2,2.1c-0.1,0.7-0.1,1.3,0,1.7c0,0.2,0,0.5,0,0.7c0,0.2,0,0.4,0.1,0.6
				c0.2-0.5,0.4-1.1,0.6-1.6c0.2-0.6,0.5-1.1,0.7-1.6c0.2-0.5,0.4-1,0.6-1.5c0.2-0.5,0.4-0.8,0.5-1.1c0.2-0.4,0.4-0.9,0.7-1.5
				c0.3-0.6,0.6-1.2,0.9-1.8C15,8.1,15.3,7.5,15.6,7c0.3-0.5,0.4-0.9,0.5-1.1c0.1-0.1,0.2-0.3,0.4-0.4c0.2-0.1,0.4-0.2,0.7-0.3
				s0.5-0.1,0.7-0.2c0.2,0,0.3,0,0.4,0c0.2,0,0.3,0.1,0.4,0.2c0.1,0.1,0.1,0.1,0.1,0.2c0,0.1,0,0.2,0.1,0.3c0,0.1,0,0.3,0,0.6
				c0,0.3-0.1,0.9-0.2,1.6c-0.1,0.7-0.3,1.5-0.5,2.4c-0.2,0.9-0.4,1.9-0.6,2.9c-0.2,1-0.4,2-0.6,3c-0.2,1-0.4,1.9-0.5,2.8
				s-0.2,1.6-0.3,2.2c0,0.7,0,1.2,0.1,1.7c0,0.2,0.1,0.4,0.2,0.6c0.1,0.2,0.2,0.4,0.3,0.5c0.1,0.2,0.3,0.3,0.5,0.3
				c0.2,0.1,0.4,0.1,0.7,0.1c-0.4,0.2-0.7,0.4-1.1,0.5c-0.3,0.1-0.7,0.2-1,0.2c-0.4,0-0.7,0-0.9-0.2c-0.3-0.1-0.5-0.3-0.7-0.5
				c-0.2-0.2-0.3-0.5-0.4-0.8c-0.1-0.3-0.1-0.6-0.1-1c0-0.3,0.1-0.9,0.3-1.7c0.2-0.8,0.3-1.7,0.6-2.7c0.2-1,0.5-2,0.7-3.1
				c0.3-1.1,0.5-2.1,0.8-3.1c0.2-1,0.4-1.8,0.6-2.5S17,8.4,17,8.2c0-0.2,0.1-0.3,0.1-0.5s0-0.3,0.1-0.4c-0.1,0.3-0.3,0.6-0.5,1
				c-0.2,0.4-0.4,0.8-0.7,1.3c-0.2,0.5-0.5,0.9-0.7,1.4s-0.5,1-0.7,1.4c-0.4,0.7-0.7,1.5-1.1,2.3c-0.3,0.8-0.7,1.5-0.9,2.2
				c-0.3,0.7-0.5,1.3-0.7,1.9c-0.2,0.6-0.3,1-0.3,1.3v0.3c0,0.1,0,0.2,0,0.3c0,0.1,0,0.2,0.1,0.3l-0.9,0.7c-0.1,0-0.2,0.1-0.3,0.1
				c-0.1,0-0.2,0-0.3,0c-0.3,0-0.6-0.2-0.8-0.5c-0.2-0.3-0.3-0.9-0.5-1.8c-0.1-0.9-0.2-2-0.1-3.4c0-0.7,0.1-1.3,0.1-2
				c0.1-0.7,0.1-1.3,0.2-1.9c0.1-0.6,0.1-1.2,0.2-1.7c0.1-0.5,0.1-1,0.1-1.4c0-0.3,0-0.5,0-0.8c0-0.2-0.1-0.5-0.1-0.7
				C9.3,8,9.1,8.5,9,9c-0.2,0.6-0.3,1.2-0.5,1.9S8.1,12.3,8,13.1c-0.2,0.8-0.4,1.5-0.5,2.2C7.3,16,7.1,16.6,7,17.2
				c-0.1,0.6-0.3,1.1-0.3,1.4c-0.1,0.6-0.3,1.2-0.4,2c-0.1,0.7-0.3,1.4-0.5,2.1c-0.2,0.7-0.5,1.2-0.8,1.7S4,25,3.5,25z" fill="#fff"/>
			<path d="M30.2,16.7c-0.2,0.3-0.5,0.6-0.8,1.1c-0.3,0.4-0.6,0.8-1,1.3c-0.3,0.4-0.7,0.8-1,1.2c-0.3,0.4-0.6,0.6-0.8,0.7
				c-0.1,0.1-0.3,0.2-0.5,0.2c-0.2,0.1-0.4,0.1-0.6,0.1c-0.2,0-0.4,0-0.5,0c-0.2,0-0.3-0.1-0.5-0.2c-0.1-0.1-0.2-0.2-0.3-0.4
				c-0.1-0.2-0.1-0.4-0.2-0.6s-0.1-0.6-0.1-1c-0.3,0.6-0.7,1-1.1,1.3c-0.4,0.3-0.8,0.5-1.2,0.7c-0.4,0.2-0.9,0.3-1.3,0.3
				c-0.2,0-0.4-0.1-0.6-0.2c-0.2-0.1-0.4-0.4-0.6-0.6c-0.2-0.3-0.3-0.7-0.3-1.1c0-0.5,0-1,0.2-1.7c0.2-0.9,0.5-1.7,1-2.4
				c0.4-0.7,0.9-1.3,1.4-1.8c0.5-0.5,1-0.9,1.5-1.1c0.5-0.3,0.9-0.4,1.2-0.3c0.4,0.1,0.7,0.2,0.9,0.3c0.2,0.1,0.3,0.4,0.4,0.6
				s-0.1,0.6-0.4,1.1c0.2,0,0.4-0.1,0.5-0.1c0.1,0,0.2,0,0.3,0c0.1,0,0.1,0,0.2,0c0,0,0,0.1,0,0.2c0,0.1,0,0.3-0.1,0.5
				c0,0.2-0.1,0.6-0.2,1c-0.1,0.4-0.2,1-0.3,1.6c0,0.1-0.1,0.2-0.1,0.4s0,0.2-0.1,0.3s0,0.2-0.1,0.4c0,0.1-0.1,0.3-0.1,0.5
				c0,0.1,0,0.3,0,0.4c0,0.2,0,0.3,0.1,0.4s0.1,0.2,0.2,0.3c0.1,0.1,0.2,0.1,0.4,0.1c0.1,0,0.3-0.1,0.6-0.3c0.2-0.2,0.5-0.4,0.7-0.7
				s0.5-0.6,0.8-0.9c0.3-0.3,0.5-0.7,0.8-1c0.2-0.3,0.5-0.6,0.7-0.8c0.2-0.2,0.3-0.4,0.4-0.5c0.1-0.1,0.2-0.2,0.3-0.2
				c0.1,0,0.2,0,0.3,0.1c0.1,0.1,0.1,0.2,0,0.4C30.4,16.3,30.3,16.5,30.2,16.7z M23.9,17.7c0.1-0.3,0.2-0.6,0.3-1
				c0.1-0.4,0.2-0.8,0.3-1.1c0.1-0.4,0.1-0.7,0.2-0.9c0-0.2,0-0.3,0-0.3c-0.1,0-0.2,0-0.2,0.1c-0.1,0-0.2,0.1-0.3,0.1
				c-0.1,0-0.2,0-0.3,0.1c0.1-0.2,0.2-0.4,0.2-0.6s0-0.3,0-0.4c0-0.1,0-0.2-0.1-0.2c-0.2-0.1-0.4,0-0.8,0.3c-0.4,0.3-0.8,1-1.4,1.9
				c-0.2,0.4-0.4,0.8-0.5,1.2c-0.1,0.4-0.2,0.8-0.3,1.2c-0.1,0.4-0.1,0.7,0,1c0,0.3,0.1,0.5,0.2,0.5c0.2,0.2,0.3,0.2,0.5,0.2
				c0.2,0,0.4-0.1,0.6-0.2c0.2-0.1,0.4-0.2,0.6-0.4c0.2-0.2,0.4-0.4,0.6-0.5c0.2-0.2,0.3-0.4,0.4-0.5C23.8,17.9,23.8,17.7,23.9,17.7
				z" fill="#fff"/>
			<path d="M36.6,15.6c0.1-0.1,0.1-0.1,0.2-0.2c0.1,0,0.2,0,0.2,0c0.1,0,0.1,0.1,0.1,0.2c0,0.1,0,0.2-0.1,0.4
				c-0.3,0.5-0.7,1.1-1.1,1.8c-0.5,0.6-1,1.2-1.5,1.8c-0.5,0.6-1,1-1.5,1.4c-0.5,0.4-0.9,0.5-1.2,0.5c-0.5,0-0.9-0.1-1.2-0.3
				c-0.3-0.2-0.6-0.4-0.7-0.7c-0.2-0.3-0.3-0.6-0.4-0.9c-0.1-0.3-0.1-0.6-0.1-0.9c0-0.2,0.1-0.6,0.2-1.2c0.1-0.6,0.2-1.3,0.3-2.1
				c0.1-0.8,0.3-1.6,0.5-2.5c0.2-0.9,0.4-1.8,0.6-2.6c-0.2,0-0.5,0.1-0.7,0.1c-0.2,0-0.5,0-0.7,0c-0.5,0-0.9-0.1-1.3-0.2
				s-0.7-0.2-0.9-0.3c-0.1-0.1-0.2-0.1-0.2-0.2c0-0.1,0.1-0.2,0.1-0.3c0.1-0.1,0.2-0.2,0.3-0.3C27.7,9.1,27.8,9,27.9,9
				c0.3,0,0.6,0.1,0.9,0.1s0.7,0,1,0c0.3,0,0.5,0,0.8-0.1c0.3,0,0.5-0.1,0.7-0.1c0.2-0.7,0.4-1.3,0.5-1.8c0.2-0.5,0.3-0.9,0.5-1.1
				c0-0.1,0.1-0.1,0.3-0.2c0.2,0,0.3-0.1,0.5-0.1s0.3,0,0.5,0c0.2,0,0.3,0.1,0.3,0.2C34,6.1,34,6.4,34,6.8c0,0.5-0.1,1.1-0.2,1.8
				c0.6,0,1.1,0,1.6,0.1c0.5,0.1,0.9,0.1,1.2,0.2c0.3,0.1,0.6,0.2,0.8,0.2c0.2,0.1,0.4,0.1,0.5,0.2c0.1,0,0.2,0.1,0.2,0.2
				c0,0.1,0,0.2-0.1,0.4c-0.1,0.1-0.1,0.2-0.2,0.3c-0.1,0.1-0.2,0.1-0.4,0.1c-0.1,0-0.3,0-0.5-0.1c-0.2,0-0.4-0.1-0.6-0.1
				c-0.3,0-0.5-0.1-0.9-0.1c-0.3,0-0.7,0-1.2,0c-0.1,0-0.2,0-0.3,0c-0.1,0-0.2,0-0.3,0c-0.1,0.2-0.1,0.5-0.2,0.7
				c-0.1,0.2-0.1,0.5-0.2,0.7c-0.2,0.6-0.4,1.2-0.6,1.9c-0.2,0.6-0.5,1.3-0.8,2c-0.3,0.8-0.6,1.6-1,2.4c-0.1,0.6-0.1,1.1,0,1.4
				s0.2,0.6,0.4,0.7c0.2,0.2,0.4,0.2,0.7,0.3c0.2,0,0.5,0,0.8-0.2c0.3-0.2,0.6-0.4,1-0.7c0.3-0.3,0.7-0.6,1-1
				c0.3-0.4,0.6-0.7,0.9-1.1c0.3-0.3,0.5-0.7,0.8-0.9S36.6,15.7,36.6,15.6z" fill="#fff"/>
			<path d="M46.4,16.3c0.1-0.1,0.2-0.2,0.3-0.2c0.1,0,0.2,0,0.3,0.1s0.1,0.2,0.1,0.3c0,0.1-0.1,0.3-0.2,0.4
				c-0.3,0.4-0.6,0.8-0.9,1.1c-0.4,0.4-0.7,0.8-1.1,1.1c-0.4,0.4-0.8,0.7-1.2,1.1c-0.4,0.3-0.8,0.6-1.2,0.8
				c-0.4,0.2-0.8,0.4-1.1,0.4c-0.3,0-0.6-0.2-0.9-0.6c-0.3-0.3-0.4-0.7-0.4-1.1c0-0.4,0.1-0.9,0.2-1.4c0.1-0.4,0.2-0.8,0.4-1.3
				c0.2-0.5,0.3-1,0.4-1.4c0.1-0.5,0.1-0.8,0.1-1.2S41,14,40.7,14c-0.2,0-0.5,0.1-0.7,0.2c-0.3,0.2-0.5,0.4-0.8,0.6
				c-0.3,0.3-0.5,0.5-0.8,0.8c-0.2,0.3-0.5,0.6-0.6,0.9c-0.1,0.6-0.2,1.1-0.3,1.7c-0.1,0.5-0.2,1-0.3,1.5s-0.2,1-0.3,1.4
				c-0.1,0.1-0.2,0.1-0.3,0.2c-0.1,0-0.2,0-0.3,0c-0.1,0-0.2,0-0.3,0c-0.1,0-0.2-0.1-0.3-0.1c-0.1-0.1-0.2-0.1-0.3-0.2
				s-0.2-0.2-0.2-0.4c0.6-2.6,1.2-4.8,1.5-6.4c0.4-1.6,0.7-2.8,0.9-3.7c0.2-1,0.4-1.7,0.5-2.1c0-0.3,0.1-0.5,0.1-0.8
				c0-0.2,0-0.5,0-0.7c0-0.2,0-0.5-0.1-0.7c0.1-0.1,0.2-0.1,0.4-0.2c0.1,0,0.3-0.1,0.4-0.1C39,6,39.2,6,39.3,6c0.2,0,0.3,0,0.4,0
				c0.1,0,0.2,0,0.3,0c0.1,0,0.2,0.1,0.2,0.1c0.1,0.1,0.1,0.2,0.1,0.4c0,0.2,0,0.4-0.1,0.7c-0.1,0.3-0.1,0.6-0.2,0.9
				c-0.3,1.2-0.6,2.3-1,3.4c-0.4,1.1-0.7,2.3-1,3.5c0.2-0.3,0.4-0.6,0.7-0.9s0.5-0.6,0.8-0.8c0.3-0.3,0.6-0.5,1-0.6
				c0.3-0.2,0.7-0.2,1.1-0.2c0.2,0,0.4,0,0.6,0.1c0.2,0.1,0.3,0.2,0.5,0.3c0.1,0.2,0.2,0.4,0.3,0.6c0.1,0.3,0.1,0.6,0.1,0.9
				c0,0.2,0,0.5-0.1,0.7c-0.1,0.2-0.1,0.5-0.2,0.8c-0.1,0.3-0.2,0.6-0.3,1c-0.1,0.4-0.3,0.8-0.5,1.2c-0.1,0.3-0.2,0.6-0.3,0.8
				c-0.1,0.2-0.1,0.4,0,0.6c0.1,0.2,0.4,0.3,0.8,0.2c0.4-0.1,0.9-0.5,1.7-1.1c0.2-0.1,0.4-0.3,0.6-0.5s0.4-0.4,0.6-0.7
				c0.2-0.2,0.4-0.4,0.6-0.6C46.2,16.5,46.3,16.4,46.4,16.3z" fill="#fff"/>
			<path d="M63,17.3c-0.2,0.5-0.4,1-0.7,1.5c-0.3,0.5-0.5,0.9-0.9,1.3c-0.3,0.4-0.7,0.7-1,0.9c-0.4,0.2-0.7,0.3-1.2,0.3
				c-0.7,0-1.2-0.2-1.5-0.7s-0.6-1-0.7-1.7c-0.2,0.3-0.4,0.6-0.6,0.9c-0.2,0.3-0.5,0.6-0.7,0.8c-0.3,0.2-0.5,0.4-0.8,0.6
				c-0.3,0.1-0.5,0.2-0.8,0.2c-0.4,0-0.7-0.1-0.9-0.2c-0.3-0.2-0.5-0.4-0.6-0.7c-0.2-0.3-0.3-0.6-0.4-1C52,19.3,52,18.9,52,18.5
				v-0.3c0-0.5,0-1.1,0.1-1.6s0.2-1.1,0.3-1.5s0.2-0.9,0.3-1.2c0.1-0.4,0.2-0.6,0.3-0.7c0.1-0.1,0.3-0.3,0.7-0.4
				c0.3-0.1,0.7-0.2,1-0.2c0.2,0,0.2,0.1,0.2,0.2c0,0.1,0,0.3-0.1,0.4c-0.1,0.2-0.2,0.6-0.3,1.1c-0.1,0.5-0.3,1-0.4,1.6
				c-0.2,0.6-0.3,1.1-0.4,1.7c-0.1,0.6-0.2,1-0.2,1.4c0,0.5,0.1,0.8,0.2,1c0.1,0.2,0.4,0.3,0.7,0.3c0.4,0,0.8-0.2,1.2-0.6
				c0.4-0.4,0.9-1.1,1.3-2c0-0.1,0-0.2,0-0.3s0-0.2,0-0.3c0-0.6,0-1.3,0.1-1.8c0-0.6,0.2-1.1,0.3-1.5c0.2-0.4,0.4-0.8,0.6-1.1
				c0.3-0.3,0.6-0.4,1-0.4c0.2,0,0.3,0.1,0.4,0.2c0.1,0.1,0.2,0.2,0.2,0.4c0,0.5-0.2,1.1-0.5,1.9s-0.7,1.8-1.1,2.8
				c0,0.1-0.1,0.1-0.1,0.2c0,0.3,0.1,0.6,0.2,0.9s0.2,0.6,0.3,0.8c0.1,0.3,0.3,0.5,0.4,0.6c0.2,0.2,0.3,0.2,0.6,0.2
				c0.3,0,0.6-0.2,0.9-0.5c0.3-0.3,0.5-0.7,0.7-1.1c0.2-0.4,0.4-0.9,0.5-1.4c0.2-0.5,0.3-0.9,0.4-1.3c0-0.2-0.1-0.3-0.1-0.5
				c0-0.2,0-0.3,0-0.5c0-0.4,0.1-0.8,0.2-1.1c0.1-0.3,0.3-0.6,0.5-0.8c0.2-0.2,0.4-0.4,0.7-0.5c0.2-0.1,0.5-0.2,0.7-0.2
				c0.4,0,0.5,0.2,0.5,0.5c0,0.2-0.1,0.6-0.2,1.2c-0.1,0.6-0.3,1.2-0.5,1.9c0.3,0.1,0.6,0.2,1,0.2c0.4,0,0.7,0,1-0.1
				c0.3-0.1,0.6-0.2,0.9-0.4c0.3-0.1,0.5-0.3,0.7-0.5s0.4-0.3,0.6-0.5c0.2-0.1,0.3-0.1,0.4,0c0.1,0.1,0.1,0.3,0,0.5
				c-0.1,0.2-0.3,0.4-0.6,0.6c-0.3,0.2-0.6,0.5-1,0.7c-0.4,0.2-0.8,0.4-1.3,0.6c-0.5,0.2-1,0.2-1.5,0.2c-0.1,0-0.2,0-0.3,0
				C63.2,17.3,63.1,17.3,63,17.3z" fill="#fff"/>
			<path d="M67.8,12.9c0.1-0.1,0.2-0.2,0.4-0.2c0.2-0.1,0.4-0.1,0.6-0.1c0.2,0,0.4-0.1,0.6-0.1c0.2,0,0.3,0,0.3,0c0,0,0,0.2-0.1,0.5
				c-0.1,0.3-0.2,0.6-0.3,1s-0.3,0.8-0.4,1.2c-0.1,0.4-0.3,0.7-0.3,1c-0.1,0.3-0.2,0.5-0.3,0.9c-0.1,0.3-0.2,0.6-0.3,0.9
				c-0.1,0.3-0.1,0.6-0.2,0.9c0,0.3,0,0.5,0.1,0.6c0.1,0.2,0.2,0.3,0.2,0.4s0.2,0.1,0.3,0.1c0.3,0,0.6-0.2,1.1-0.5
				c0.4-0.3,0.9-0.7,1.3-1.1c0.5-0.4,0.9-0.9,1.3-1.3s0.7-0.8,0.9-1.1c0.1-0.1,0.2-0.2,0.4-0.3c0.1,0,0.2,0,0.3,0
				c0.1,0.1,0.1,0.2,0.1,0.3c0,0.1,0,0.3-0.1,0.5c-0.2,0.4-0.6,0.9-1,1.4c-0.4,0.6-0.9,1.1-1.4,1.6c-0.5,0.5-1,0.9-1.5,1.3
				c-0.5,0.4-0.9,0.5-1.2,0.6c-0.2,0-0.5,0-0.7-0.1c-0.2-0.1-0.5-0.2-0.6-0.4c-0.2-0.2-0.4-0.4-0.5-0.6c-0.1-0.2-0.2-0.5-0.2-0.7
				c0-0.4,0-0.8,0-1.5s0.1-1.3,0.2-1.9c0.1-0.7,0.3-1.3,0.4-1.9C67.3,13.6,67.5,13.2,67.8,12.9z M70.7,8.3c0,0.2-0.1,0.3-0.2,0.5
				c-0.1,0.2-0.3,0.3-0.4,0.4c-0.2,0.1-0.3,0.2-0.5,0.2c-0.2,0-0.3,0-0.4-0.1c-0.3-0.2-0.5-0.5-0.5-0.7c0-0.3,0-0.5,0.2-0.8
				c0.1-0.2,0.3-0.4,0.5-0.6C69.7,7,69.9,6.9,70,6.9c0.2,0,0.3,0,0.4,0.1c0.1,0.1,0.2,0.2,0.2,0.4c0.1,0.2,0.1,0.3,0.1,0.5
				C70.8,8,70.8,8.2,70.7,8.3z" fill="#fff"/>
			<path d="M80,15.6c0.1-0.1,0.1-0.1,0.2-0.2c0.1,0,0.2,0,0.2,0c0.1,0,0.1,0.1,0.1,0.2c0,0.1,0,0.2-0.1,0.4
				c-0.3,0.5-0.7,1.1-1.1,1.8c-0.5,0.6-1,1.2-1.5,1.8c-0.5,0.6-1,1-1.5,1.4c-0.5,0.4-0.9,0.5-1.2,0.5c-0.5,0-0.9-0.1-1.2-0.3
				c-0.3-0.2-0.6-0.4-0.7-0.7c-0.2-0.3-0.3-0.6-0.4-0.9c-0.1-0.3-0.1-0.6-0.1-0.9c0-0.2,0.1-0.6,0.2-1.2c0.1-0.6,0.2-1.3,0.3-2.1
				c0.1-0.8,0.3-1.6,0.5-2.5c0.2-0.9,0.4-1.8,0.6-2.6c-0.2,0-0.5,0.1-0.7,0.1c-0.2,0-0.5,0-0.7,0c-0.5,0-0.9-0.1-1.3-0.2
				s-0.7-0.2-0.9-0.3c-0.1-0.1-0.2-0.1-0.2-0.2c0-0.1,0.1-0.2,0.1-0.3c0.1-0.1,0.2-0.2,0.3-0.3C71,9.1,71.1,9,71.2,9
				c0.3,0,0.6,0.1,0.9,0.1s0.7,0,1,0c0.3,0,0.5,0,0.8-0.1c0.3,0,0.5-0.1,0.7-0.1c0.2-0.7,0.4-1.3,0.5-1.8c0.2-0.5,0.3-0.9,0.5-1.1
				c0-0.1,0.1-0.1,0.3-0.2c0.2,0,0.3-0.1,0.5-0.1s0.3,0,0.5,0c0.2,0,0.3,0.1,0.3,0.2c0.1,0.1,0.1,0.4,0.1,0.9c0,0.5-0.1,1.1-0.2,1.8
				c0.6,0,1.1,0,1.6,0.1c0.5,0.1,0.9,0.1,1.2,0.2c0.3,0.1,0.6,0.2,0.8,0.2c0.2,0.1,0.4,0.1,0.5,0.2c0.1,0,0.2,0.1,0.2,0.2
				c0,0.1,0,0.2-0.1,0.4c-0.1,0.1-0.1,0.2-0.2,0.3c-0.1,0.1-0.2,0.1-0.4,0.1c-0.1,0-0.3,0-0.5-0.1c-0.2,0-0.4-0.1-0.6-0.1
				c-0.3,0-0.5-0.1-0.9-0.1c-0.3,0-0.7,0-1.2,0c-0.1,0-0.2,0-0.3,0c-0.1,0-0.2,0-0.3,0c-0.1,0.2-0.1,0.5-0.2,0.7
				c-0.1,0.2-0.1,0.5-0.2,0.7c-0.2,0.6-0.4,1.2-0.6,1.9c-0.2,0.6-0.5,1.3-0.8,2c-0.3,0.8-0.6,1.6-1,2.4c-0.1,0.6-0.1,1.1,0,1.4
				s0.2,0.6,0.4,0.7c0.2,0.2,0.4,0.2,0.7,0.3c0.2,0,0.5,0,0.8-0.2c0.3-0.2,0.6-0.4,1-0.7c0.3-0.3,0.7-0.6,1-1
				c0.3-0.4,0.6-0.7,0.9-1.1c0.3-0.3,0.5-0.7,0.8-0.9S79.9,15.7,80,15.6z" fill="#fff"/>
			<path d="M89.8,16.3c0.1-0.1,0.2-0.2,0.3-0.2c0.1,0,0.2,0,0.3,0.1s0.1,0.2,0.1,0.3c0,0.1-0.1,0.3-0.2,0.4
				c-0.3,0.4-0.6,0.8-0.9,1.1c-0.4,0.4-0.7,0.8-1.1,1.1c-0.4,0.4-0.8,0.7-1.2,1.1c-0.4,0.3-0.8,0.6-1.2,0.8
				c-0.4,0.2-0.8,0.4-1.1,0.4c-0.3,0-0.6-0.2-0.9-0.6c-0.3-0.3-0.4-0.7-0.4-1.1c0-0.4,0.1-0.9,0.2-1.4c0.1-0.4,0.2-0.8,0.4-1.3
				c0.2-0.5,0.3-1,0.4-1.4c0.1-0.5,0.1-0.8,0.1-1.2S84.3,14,84,14c-0.2,0-0.5,0.1-0.7,0.2c-0.3,0.2-0.5,0.4-0.8,0.6
				c-0.3,0.3-0.5,0.5-0.8,0.8c-0.2,0.3-0.5,0.6-0.6,0.9c-0.1,0.6-0.2,1.1-0.3,1.7c-0.1,0.5-0.2,1-0.3,1.5s-0.2,1-0.3,1.4
				c-0.1,0.1-0.2,0.1-0.3,0.2c-0.1,0-0.2,0-0.3,0c-0.1,0-0.2,0-0.3,0c-0.1,0-0.2-0.1-0.3-0.1c-0.1-0.1-0.2-0.1-0.3-0.2
				s-0.2-0.2-0.2-0.4c0.6-2.6,1.2-4.8,1.5-6.4c0.4-1.6,0.7-2.8,0.9-3.7c0.2-1,0.4-1.7,0.5-2.1c0-0.3,0.1-0.5,0.1-0.8
				c0-0.2,0-0.5,0-0.7c0-0.2,0-0.5-0.1-0.7c0.1-0.1,0.2-0.1,0.4-0.2c0.1,0,0.3-0.1,0.4-0.1C82.3,6,82.5,6,82.6,6c0.2,0,0.3,0,0.4,0
				c0.1,0,0.2,0,0.3,0c0.1,0,0.2,0.1,0.2,0.1c0.1,0.1,0.1,0.2,0.1,0.4c0,0.2,0,0.4-0.1,0.7c-0.1,0.3-0.1,0.6-0.2,0.9
				c-0.3,1.2-0.6,2.3-1,3.4c-0.4,1.1-0.7,2.3-1,3.5c0.2-0.3,0.4-0.6,0.7-0.9s0.5-0.6,0.8-0.8c0.3-0.3,0.6-0.5,1-0.6
				c0.3-0.2,0.7-0.2,1.1-0.2c0.2,0,0.4,0,0.6,0.1c0.2,0.1,0.3,0.2,0.5,0.3c0.1,0.2,0.2,0.4,0.3,0.6c0.1,0.3,0.1,0.6,0.1,0.9
				c0,0.2,0,0.5-0.1,0.7c-0.1,0.2-0.1,0.5-0.2,0.8c-0.1,0.3-0.2,0.6-0.3,1c-0.1,0.4-0.3,0.8-0.5,1.2c-0.1,0.3-0.2,0.6-0.3,0.8
				c-0.1,0.2-0.1,0.4,0,0.6c0.1,0.2,0.4,0.3,0.8,0.2c0.4-0.1,0.9-0.5,1.7-1.1c0.2-0.1,0.4-0.3,0.6-0.5s0.4-0.4,0.6-0.7
				c0.2-0.2,0.4-0.4,0.6-0.6C89.5,16.5,89.6,16.4,89.8,16.3z" fill="#fff"/>
			<path d="M103,11.1c0,0,0-0.2,0.1-0.3c0.1-0.2,0.2-0.4,0.3-0.7c0.1-0.3,0.2-0.6,0.4-0.9c0.1-0.3,0.2-0.7,0.3-1c0-0.4,0-0.7,0-1.1
				c-0.1-0.4-0.2-0.7-0.5-1c-0.1-0.2-0.4-0.3-0.6-0.3s-0.6,0-0.9,0.1s-0.7,0.3-1.1,0.5c-0.4,0.2-0.7,0.5-1,0.8
				c-0.3,0.3-0.6,0.6-0.8,1c-0.2,0.4-0.3,0.7-0.4,1.1c0,0.3,0,0.6,0,0.8s0.1,0.5,0.2,0.7s0.2,0.4,0.3,0.6c0.1,0.2,0.2,0.4,0.3,0.5
				c0.1,0.2,0.3,0.4,0.5,0.7c0.2,0.2,0.5,0.5,0.8,0.8c0.3,0.3,0.6,0.7,0.9,1c0.3,0.4,0.5,0.8,0.8,1.3c0.2,0.5,0.4,1,0.5,1.6
				s0.1,1.3,0,2c-0.2,1.1-0.4,1.9-0.8,2.7s-0.7,1.3-1.1,1.7s-0.8,0.7-1.2,0.9c-0.4,0.2-0.8,0.3-1,0.4c-0.2,0-0.5,0.1-0.8,0.1
				c-0.3,0-0.6,0-0.9,0c-0.3-0.1-0.6-0.2-1-0.3c-0.3-0.2-0.6-0.4-0.9-0.7c-0.3-0.4-0.5-0.7-0.7-1.2c-0.2-0.4-0.3-0.8-0.4-1.2
				c-0.1-0.5,0-0.9,0.1-1.5c0.1-0.1,0.2-0.2,0.4-0.3c0.1-0.1,0.3-0.2,0.4-0.3c0.1-0.1,0.3-0.2,0.5-0.2c0.2-0.1,0.4-0.1,0.6-0.2
				c0.2,0,0.3,0,0.5-0.1c0.2,0,0.3,0,0.5,0.1c-0.2,0.2-0.4,0.5-0.5,0.7c-0.1,0.1-0.1,0.2-0.1,0.3c-0.1,0.3-0.1,0.6-0.1,1
				s0.1,0.7,0.2,1.1c0.1,0.4,0.3,0.7,0.6,0.9c0.3,0.3,0.6,0.4,1,0.4c1,0,1.9-0.8,2.7-2.4c0.2-0.5,0.4-1,0.4-1.6c0-0.5-0.1-1-0.2-1.5
				c-0.1-0.5-0.3-0.9-0.5-1.4c-0.2-0.4-0.4-0.8-0.7-1.1c-0.2-0.3-0.5-0.6-0.8-1c-0.3-0.4-0.6-0.7-1-1.1c-0.3-0.4-0.6-0.9-0.8-1.4
				c-0.3-0.5-0.4-1-0.5-1.6c-0.1-0.8,0-1.5,0.2-2.2s0.6-1.2,1.1-1.8c0.5-0.5,0.9-0.9,1.5-1.2c0.5-0.3,1-0.5,1.4-0.6
				c2.3-0.5,3.8-0.1,4.5,1.2c0.3,0.5,0.5,1,0.5,1.5c0,0.5,0,1-0.1,1.5s-0.2,0.8-0.3,1.1c-0.1,0.3-0.2,0.5-0.3,0.5
				c-0.1,0.1-0.2,0.2-0.4,0.3c-0.2,0.1-0.5,0.2-0.9,0.3c-0.1,0-0.2,0-0.3,0c-0.1,0-0.2,0-0.3,0C103.2,11.2,103.1,11.2,103,11.1z" fill="#fff"/>
			<path d="M109.2,20.3c0.4,0,0.9-0.2,1.5-0.5c0.5-0.4,1.1-0.8,1.6-1.2s1-1,1.4-1.5s0.7-0.9,1-1.2c0.1-0.2,0.3-0.3,0.4-0.3
				c0.1,0,0.2,0,0.3,0.1c0.1,0.1,0.1,0.2,0.1,0.3c0,0.2-0.1,0.3-0.2,0.5c-0.1,0.2-0.3,0.4-0.5,0.7s-0.5,0.7-0.8,1.1
				c-0.3,0.4-0.7,0.8-1.1,1.2c-0.4,0.4-0.8,0.8-1.3,1.1c-0.4,0.3-0.9,0.6-1.4,0.8c-0.5,0.2-0.9,0.3-1.4,0.3c-0.6,0-1.2-0.1-1.6-0.4
				s-0.8-0.5-1-0.9c-0.3-0.4-0.4-0.8-0.5-1.2s-0.2-0.9-0.2-1.3c0-0.4,0.1-1,0.3-1.7c0.2-0.7,0.5-1.3,0.9-1.9
				c0.4-0.6,0.9-1.1,1.5-1.6c0.6-0.4,1.3-0.7,2.1-0.7c0.5,0,0.8,0.2,1.2,0.5c0.3,0.3,0.5,0.7,0.5,1.3c0,0.3,0,0.5-0.1,0.8
				c-0.1,0.3-0.2,0.5-0.3,0.7c-0.1,0.2-0.3,0.3-0.5,0.5c-0.2,0.1-0.4,0.2-0.6,0.2c-0.2,0-0.3-0.1-0.4-0.2c-0.1-0.1-0.2-0.3-0.2-0.5
				c0-0.2,0-0.4,0-0.5s0-0.3,0.1-0.3c0.1-0.1,0.2-0.2,0.2-0.2s0.2-0.1,0.3-0.2c0.1,0,0.2-0.1,0.2-0.2s0.1-0.2,0.1-0.3
				c0-0.1,0-0.2-0.1-0.3c-0.1-0.1-0.2-0.1-0.3-0.1s-0.4,0.1-0.7,0.3c-0.3,0.2-0.7,0.5-1,0.9s-0.7,0.9-0.9,1.5
				c-0.3,0.6-0.4,1.3-0.4,2.1c0,0.5,0,0.9,0.2,1.2c0.1,0.3,0.3,0.5,0.5,0.7s0.5,0.3,0.7,0.4C108.7,20.2,108.9,20.3,109.2,20.3z" fill="#fff"/>
			<path d="M115.3,12.9c0.1-0.1,0.2-0.2,0.4-0.2c0.2-0.1,0.4-0.1,0.6-0.1c0.2,0,0.4-0.1,0.6-0.1c0.2,0,0.3,0,0.3,0
				c0,0,0,0.2-0.1,0.5c-0.1,0.3-0.2,0.6-0.3,1s-0.3,0.8-0.4,1.2c-0.1,0.4-0.3,0.7-0.3,1c-0.1,0.3-0.2,0.5-0.3,0.9
				c-0.1,0.3-0.2,0.6-0.3,0.9c-0.1,0.3-0.1,0.6-0.2,0.9c0,0.3,0,0.5,0.1,0.6c0.1,0.2,0.2,0.3,0.2,0.4s0.2,0.1,0.3,0.1
				c0.3,0,0.6-0.2,1.1-0.5c0.4-0.3,0.9-0.7,1.3-1.1c0.5-0.4,0.9-0.9,1.3-1.3s0.7-0.8,0.9-1.1c0.1-0.1,0.2-0.2,0.4-0.3s0.2,0,0.3,0
				c0.1,0.1,0.1,0.2,0.1,0.3s0,0.3-0.1,0.5c-0.2,0.4-0.6,0.9-1,1.4c-0.4,0.6-0.9,1.1-1.4,1.6c-0.5,0.5-1,0.9-1.5,1.3
				s-0.9,0.5-1.2,0.6c-0.2,0-0.5,0-0.7-0.1c-0.2-0.1-0.5-0.2-0.6-0.4c-0.2-0.2-0.4-0.4-0.5-0.6c-0.1-0.2-0.2-0.5-0.2-0.7
				c0-0.4,0-0.8,0-1.5s0.1-1.3,0.2-1.9c0.1-0.7,0.3-1.3,0.4-1.9C114.8,13.6,115,13.2,115.3,12.9z M118.2,8.3c0,0.2-0.1,0.3-0.2,0.5
				s-0.3,0.3-0.4,0.4c-0.2,0.1-0.3,0.2-0.5,0.2c-0.2,0-0.3,0-0.4-0.1c-0.3-0.2-0.5-0.5-0.5-0.7c0-0.3,0-0.5,0.2-0.8
				c0.1-0.2,0.3-0.4,0.5-0.6c0.2-0.2,0.4-0.3,0.6-0.3c0.2,0,0.3,0,0.4,0.1c0.1,0.1,0.2,0.2,0.2,0.4c0.1,0.2,0.1,0.3,0.1,0.5
				C118.3,8,118.3,8.2,118.2,8.3z" fill="#fff"/>
			<path d="M129.3,16.5c-0.4,0.6-0.9,1.2-1.5,1.8c-0.5,0.6-1.1,1.1-1.7,1.6c-0.6,0.5-1.2,0.8-1.9,1.1s-1.3,0.4-1.9,0.4
				c-0.3,0-0.7-0.1-1-0.2s-0.7-0.4-1-0.7c-0.3-0.3-0.5-0.7-0.7-1.2c-0.2-0.5-0.2-1.1-0.2-1.8c0.1-0.6,0.2-1.2,0.5-1.9
				c0.3-0.7,0.7-1.2,1.1-1.8c0.5-0.5,1-1,1.5-1.4c0.6-0.4,1.1-0.5,1.7-0.5c0.5,0,0.9,0.1,1.2,0.4c0.2,0.3,0.4,0.6,0.3,1
				c0,0.4-0.2,0.9-0.4,1.2c-0.2,0.4-0.5,0.7-0.7,1c-0.3,0.3-0.6,0.6-0.9,0.8c-0.3,0.2-0.6,0.5-0.9,0.7c-0.3,0.2-0.6,0.4-0.9,0.6
				c-0.3,0.2-0.5,0.4-0.8,0.5c0,0.4,0.1,0.7,0.2,0.9c0.1,0.2,0.3,0.4,0.4,0.6s0.4,0.3,0.6,0.3s0.4,0.1,0.7,0.1c0.5,0,1-0.2,1.5-0.5
				c0.5-0.3,1-0.7,1.6-1.1c0.5-0.4,1-0.9,1.4-1.4s0.8-0.9,1.1-1.2c0.1-0.1,0.2-0.2,0.3-0.2s0.2,0,0.3,0c0.1,0.1,0.1,0.1,0.1,0.3
				C129.4,16.2,129.4,16.4,129.3,16.5z M123.8,13.2c-0.2,0-0.4,0.1-0.6,0.3s-0.5,0.4-0.7,0.7c-0.2,0.3-0.4,0.7-0.6,1.2
				c-0.2,0.5-0.4,1-0.5,1.6c0.2-0.1,0.4-0.3,0.6-0.4c0.2-0.1,0.4-0.3,0.6-0.4c0.6-0.5,1-0.9,1.3-1.2c0.2-0.4,0.4-0.7,0.4-0.9
				c0-0.3,0-0.5-0.1-0.6C124.1,13.3,123.9,13.2,123.8,13.2z" fill="#fff"/>
			<path d="M134.1,21.5c-0.3,0-0.6-0.1-0.8-0.2c-0.2-0.1-0.4-0.3-0.6-0.5c-0.1-0.2-0.2-0.4-0.3-0.7c0-0.3,0-0.5,0-0.8
				c0-0.2,0.1-0.5,0.2-0.8c0.1-0.3,0.2-0.7,0.3-1.1c0.1-0.4,0.2-0.8,0.3-1.2c0.1-0.4,0.2-0.8,0.2-1.1c0-0.3,0-0.6,0-0.8
				c-0.1-0.2-0.2-0.3-0.4-0.3c-0.2,0-0.5,0.1-0.7,0.2c-0.2,0.2-0.5,0.4-0.7,0.6s-0.5,0.6-0.8,0.9c-0.3,0.3-0.5,0.7-0.7,1
				c-0.1,0.5-0.2,0.9-0.3,1.3s-0.2,0.7-0.2,1c-0.1,0.3-0.1,0.6-0.2,0.8c-0.1,0.2-0.1,0.4-0.2,0.6c0,0.1-0.2,0.3-0.4,0.4
				s-0.4,0.2-0.7,0.3c-0.2,0.1-0.5,0.1-0.6,0.1s-0.3-0.1-0.2-0.2c0-0.1,0.1-0.3,0.1-0.6s0.2-0.7,0.3-1.1s0.2-0.8,0.3-1.3
				c0.1-0.5,0.2-0.9,0.3-1.3c0.1-0.3,0.2-0.7,0.2-1.1c0.1-0.3,0.2-0.7,0.3-1.2c0.1-0.5,0.2-1,0.4-1.5c0.1-0.1,0.2-0.2,0.3-0.2
				c0.1,0,0.2-0.1,0.3-0.1c0.1,0,0.2-0.1,0.4-0.1c0.1,0,0.2,0,0.3,0c0.1,0,0.2,0,0.3,0.1c0.1,0,0.2,0.1,0.3,0.2
				c0,0.1-0.1,0.2-0.2,0.4c-0.1,0.2-0.1,0.4-0.2,0.6c-0.1,0.2-0.1,0.5-0.2,0.7c0.2-0.3,0.4-0.5,0.6-0.8c0.2-0.3,0.5-0.5,0.8-0.7
				s0.6-0.4,0.9-0.5c0.3-0.1,0.6-0.2,1-0.2c0.3,0,0.5,0.1,0.7,0.2c0.2,0.2,0.4,0.4,0.5,0.7s0.2,0.6,0.2,1s0,0.8-0.2,1.3l-0.2,0.9
				c-0.1,0.3-0.2,0.7-0.3,1.1s-0.2,0.9-0.4,1.3c-0.1,0.3-0.1,0.6-0.1,0.8c0,0.2,0.2,0.3,0.4,0.3s0.6-0.2,1-0.5
				c0.4-0.3,0.8-0.7,1.2-1.1c0.4-0.4,0.8-0.9,1.1-1.4c0.4-0.5,0.6-0.8,0.8-1.1c0.1-0.2,0.3-0.3,0.4-0.4c0.1-0.1,0.2-0.1,0.3,0
				s0.1,0.1,0.1,0.3s-0.1,0.3-0.2,0.6c-0.1,0.2-0.3,0.5-0.5,0.8c-0.2,0.3-0.5,0.7-0.7,1.1c-0.3,0.4-0.6,0.7-0.9,1.1
				c-0.3,0.4-0.7,0.7-1,1c-0.4,0.3-0.7,0.6-1.1,0.8S134.4,21.5,134.1,21.5z" fill="#fff"/>
			<path d="M141.6,20.3c0.4,0,0.9-0.2,1.5-0.5c0.5-0.4,1.1-0.8,1.6-1.2s1-1,1.4-1.5s0.7-0.9,1-1.2c0.1-0.2,0.3-0.3,0.4-0.3
				c0.1,0,0.2,0,0.3,0.1c0.1,0.1,0.1,0.2,0.1,0.3c0,0.2-0.1,0.3-0.2,0.5c-0.1,0.2-0.3,0.4-0.5,0.7s-0.5,0.7-0.8,1.1
				c-0.3,0.4-0.7,0.8-1.1,1.2c-0.4,0.4-0.8,0.8-1.3,1.1c-0.4,0.3-0.9,0.6-1.4,0.8c-0.5,0.2-0.9,0.3-1.4,0.3c-0.6,0-1.2-0.1-1.6-0.4
				s-0.8-0.5-1-0.9c-0.3-0.4-0.4-0.8-0.5-1.2s-0.2-0.9-0.2-1.3c0-0.4,0.1-1,0.3-1.7c0.2-0.7,0.5-1.3,0.9-1.9
				c0.4-0.6,0.9-1.1,1.5-1.6c0.6-0.4,1.3-0.7,2.1-0.7c0.5,0,0.8,0.2,1.2,0.5c0.3,0.3,0.5,0.7,0.5,1.3c0,0.3,0,0.5-0.1,0.8
				c-0.1,0.3-0.2,0.5-0.3,0.7c-0.1,0.2-0.3,0.3-0.5,0.5c-0.2,0.1-0.4,0.2-0.6,0.2c-0.2,0-0.3-0.1-0.4-0.2c-0.1-0.1-0.2-0.3-0.2-0.5
				c0-0.2,0-0.4,0-0.5s0-0.3,0.1-0.3c0.1-0.1,0.2-0.2,0.2-0.2s0.2-0.1,0.3-0.2c0.1,0,0.2-0.1,0.2-0.2s0.1-0.2,0.1-0.3
				c0-0.1,0-0.2-0.1-0.3c-0.1-0.1-0.2-0.1-0.3-0.1s-0.4,0.1-0.7,0.3c-0.3,0.2-0.7,0.5-1,0.9s-0.7,0.9-0.9,1.5
				c-0.3,0.6-0.4,1.3-0.4,2.1c0,0.5,0,0.9,0.2,1.2c0.1,0.3,0.3,0.5,0.5,0.7s0.5,0.3,0.7,0.4C141.1,20.2,141.3,20.3,141.6,20.3z" fill="#fff"/>
			<path d="M155.6,16.5c-0.4,0.6-0.9,1.2-1.5,1.8c-0.5,0.6-1.1,1.1-1.7,1.6c-0.6,0.5-1.2,0.8-1.9,1.1s-1.3,0.4-1.9,0.4
				c-0.3,0-0.7-0.1-1-0.2s-0.7-0.4-1-0.7c-0.3-0.3-0.5-0.7-0.7-1.2c-0.2-0.5-0.2-1.1-0.2-1.8c0.1-0.6,0.2-1.2,0.5-1.9
				c0.3-0.7,0.7-1.2,1.1-1.8c0.5-0.5,1-1,1.5-1.4c0.6-0.4,1.1-0.5,1.7-0.5c0.5,0,0.9,0.1,1.2,0.4c0.2,0.3,0.4,0.6,0.3,1
				c0,0.4-0.2,0.9-0.4,1.2c-0.2,0.4-0.5,0.7-0.7,1c-0.3,0.3-0.6,0.6-0.9,0.8c-0.3,0.2-0.6,0.5-0.9,0.7c-0.3,0.2-0.6,0.4-0.9,0.6
				c-0.3,0.2-0.5,0.4-0.8,0.5c0,0.4,0.1,0.7,0.2,0.9c0.1,0.2,0.3,0.4,0.4,0.6s0.4,0.3,0.6,0.3s0.4,0.1,0.7,0.1c0.5,0,1-0.2,1.5-0.5
				c0.5-0.3,1-0.7,1.6-1.1c0.5-0.4,1-0.9,1.4-1.4s0.8-0.9,1.1-1.2c0.1-0.1,0.2-0.2,0.3-0.2s0.2,0,0.3,0c0.1,0.1,0.1,0.1,0.1,0.3
				C155.8,16.2,155.7,16.4,155.6,16.5z M150.1,13.2c-0.2,0-0.4,0.1-0.6,0.3s-0.5,0.4-0.7,0.7c-0.2,0.3-0.4,0.7-0.6,1.2
				c-0.2,0.5-0.4,1-0.5,1.6c0.2-0.1,0.4-0.3,0.6-0.4c0.2-0.1,0.4-0.3,0.6-0.4c0.6-0.5,1-0.9,1.3-1.2c0.2-0.4,0.4-0.7,0.4-0.9
				c0-0.3,0-0.5-0.1-0.6C150.4,13.3,150.3,13.2,150.1,13.2z" fill="#fff"/>
		</g>
		<g id="Logo" transform="translate(-4481.758 -597.375)">
			<path id="Line" class="st1" d="M4659,604.2L4659,604.2c1.2,1.2,1.2,3.2,0,4.4l-12.2,12.2c-1.2,1.2-3.2,1.2-4.4,0l0,0
				c-1.2-1.2-1.2-3.2,0-4.4l12.2-12.2C4655.8,603,4657.7,603,4659,604.2z" fill="#fff"/>
			<circle id="Lower" class="st2" cx="4656.9" cy="618.5" r="3.5"/>
			<circle id="Upper" class="st2" cx="4644.6" cy="606.3" r="3.5"/>
		</g>
	</g>
</g>
</svg>
